HIERARCHY
ROOT Hips
{
	OFFSET -3.958830 18.904000 13.208200
	CHANNELS 6 Xposition Yposition Zposition Zrotation Yrotation Xrotation 
	JOINT LHipJoint
	{
		OFFSET 0.000000 0.000000 0.000000
		CHANNELS 3 Zrotation Yrotation Xrotation
		JOINT LeftUpLeg
		{
			OFFSET 1.800000 -1.400000 0.085000
			CHANNELS 3 Zrotation Yrotation Xrotation
			JOINT LeftLeg
			{
				OFFSET 2.215000 -6.000000 0.000000
				CHANNELS 3 Zrotation Yrotation Xrotation
				JOINT LeftFoot
				{
					OFFSET 2.500000 -6.900000 0.000000
					CHANNELS 3 Zrotation Yrotation Xrotation
					JOINT LeftToeBase
					{
						OFFSET 0.200000 -0.500000 1.950000
						CHANNELS 3 Zrotation Yrotation Xrotation
						End Site
						{
							OFFSET 0.000000 0.000000 0.000000
						}
					}
				}
			}
		}
	}
	JOINT RHipJoint
	{
		OFFSET 0.000000 0.000000 0.000000
		CHANNELS 3 Zrotation Yrotation Xrotation
		JOINT RightUpLeg
		{
			OFFSET -1.800000 -1.400000 0.085000
			CHANNELS 3 Zrotation Yrotation Xrotation
			JOINT RightLeg
			{
				OFFSET -2.215000 -6.000000 0.000000
				CHANNELS 3 Zrotation Yrotation Xrotation
				JOINT RightFoot
				{
					OFFSET -2.500000 -6.900000 0.000000
					CHANNELS 3 Zrotation Yrotation Xrotation
					JOINT RightToeBase
					{
						OFFSET -0.200000 -0.500000 1.950000
						CHANNELS 3 Zrotation Yrotation Xrotation
						End Site
						{
							OFFSET 0.000000 0.000000 0.000000
						}
					}
				}
			}
		}
	}
	JOINT LowerBack
	{
		OFFSET 0.000000 0.000000 0.000000
		CHANNELS 3 Zrotation Yrotation Xrotation
		JOINT Spine
		{
			OFFSET -0.087000 1.940000 -0.288900
			CHANNELS 3 Zrotation Yrotation Xrotation
			JOINT Spine1
			{
				OFFSET 0.000000 1.950000 0.060000
				CHANNELS 3 Zrotation Yrotation Xrotation
				JOINT Neck
				{
					OFFSET 0.000000 0.000000 0.000000
					CHANNELS 3 Zrotation Yrotation Xrotation
					JOINT Neck1
					{
						OFFSET 0.000000 1.600000 0.340000
						CHANNELS 3 Zrotation Yrotation Xrotation
						JOINT Head
						{
							OFFSET 0.000000 1.667000 -0.240000
							CHANNELS 3 Zrotation Yrotation Xrotation
							End Site
							{
								OFFSET 0.000000 0.000000 0.000000
							}
						}
					}
				}
				JOINT LeftShoulder
				{
					OFFSET 0.000000 0.000000 0.000000
					CHANNELS 3 Zrotation Yrotation Xrotation
					JOINT LeftArm
					{
						OFFSET 2.700000 1.550000 -0.730000
						CHANNELS 3 Zrotation Yrotation Xrotation
						JOINT LeftForeArm
						{
							OFFSET 5.450000 0.000000 0.000000
							CHANNELS 3 Zrotation Yrotation Xrotation
							JOINT LeftHand
							{
								OFFSET 3.450000 0.000000 0.000000
								CHANNELS 3 Zrotation Yrotation Xrotation
								JOINT LeftHandIndex1
								{
									OFFSET 0.750000 0.000000 0.000000
									CHANNELS 3 Zrotation Yrotation Xrotation
									End Site
									{
										OFFSET 0.000000 0.000000 0.000000
									}
								}
							}
						}
					}
				}
				JOINT RightShoulder
				{
					OFFSET 0.000000 0.000000 0.000000
					CHANNELS 3 Zrotation Yrotation Xrotation
					JOINT RightArm
					{
						OFFSET -2.700000 1.550000 -0.730000
						CHANNELS 3 Zrotation Yrotation Xrotation
						JOINT RightForeArm
						{
							OFFSET -5.450000 0.000000 0.000000
							CHANNELS 3 Zrotation Yrotation Xrotation
							JOINT RightHand
							{
								OFFSET -3.450000 0.000000 0.000000
								CHANNELS 3 Zrotation Yrotation Xrotation
								JOINT RightHandIndex1
								{
									OFFSET -0.750000 0.000000 0.000000
									CHANNELS 3 Zrotation Yrotation Xrotation
									End Site
									{
										OFFSET 0.000000 0.000000 0.000000
									}
								}
							}
						}
					}
				}
			}
		}
	}
}
MOTION
Frames: 7
Frame Time: 0.016667
-0.519530 16.801980 -6.178100 -8.186607 -2.566684 1.379980 -14.993606 13.081617 1.948683 9.524231 -0.586395 2.625175 -6.445672 8.927588 23.165134 0.181339 6.306534 2.617932 0.597370 0.214510 0.356810 18.694711 -9.098256 4.649347 -2.083786 10.804069 -40.816511 20.143649 -18.541483 49.025583 -1.523456 -9.116800 1.431702 0.070850 0.233510 0.347580 -4.449902 -2.752968 -7.800998 17.645443 -13.084284 16.259956 -10.666640 -10.955165 11.172044 1.909317 -6.063723 -13.426035 -12.516607 8.832661 28.205028 0.460820 4.928000 -10.046480 -7.131520 -15.119876 9.737986 -33.678900 -3.065498 -4.325580 -85.386954 -67.931363 50.832774 -3.658191 3.604627 0.487450 0.126210 -0.002650 0.353870 3.173149 16.315700 7.321668 42.871224 15.703712 -3.881267 62.695947 67.005193 31.947016 2.153981 -1.992323 -0.039530 0.034000 -0.209600 -0.142590 
-0.516530 16.805800 -6.173740 -8.213183 -3.803676 1.135205 -14.986186 13.082222 1.970417 9.225670 -0.573275 2.656510 -6.654706 9.177626 24.040194 0.200746 6.407625 2.576570 0.588680 0.205450 0.365970 18.704309 -9.059768 4.704203 -1.077014 11.332842 -41.054102 19.396783 -18.005349 49.243589 -1.517097 -8.954102 1.495229 0.054830 0.209860 0.319240 -4.468769 -2.787938 -7.853863 17.364840 -13.460323 17.382681 -11.166546 -11.125409 10.644864 2.063560 -6.331890 -13.729319 -13.227592 9.932427 29.015916 0.981590 5.698890 -11.317970 -7.042772 -15.799717 10.100940 -34.458365 -1.607544 -5.684877 -79.578955 -63.941769 42.877050 -3.531561 3.640760 0.541360 0.087090 0.025730 0.342670 2.775634 17.191790 7.365891 44.382657 16.050703 -4.647630 60.562295 62.063286 27.725471 2.124986 -1.970040 -0.057090 0.063080 -0.206720 -0.157800 
-0.516780 16.799970 -6.154950 -7.885187 -6.033998 1.045031 -14.986113 13.067258 2.040001 8.478378 -0.614319 2.138134 -7.442310 9.806159 25.988047 0.270143 6.621831 2.471247 0.619650 0.242250 0.416600 18.707588 -9.006532 4.787625 0.937929 12.181610 -41.438539 17.415212 -16.279285 48.724974 -1.440053 -8.387182 1.655710 0.051560 0.128370 0.301250 -4.465065 -2.814124 -7.951208 16.344644 -13.564638 18.960684 -11.848865 -10.944782 9.592679 2.306995 -6.609575 -13.894667 -14.028127 10.643089 30.114393 1.097450 6.375290 -13.440800 -7.084625 -16.478428 10.027696 -35.786109 -0.759802 -7.369702 -68.780425 -55.147011 29.074157 -3.363910 3.621690 0.602110 0.012910 0.093690 0.328680 2.326381 18.231927 7.439787 47.350972 16.186544 -5.776732 55.944051 53.606501 20.536152 2.129388 -1.933416 -0.041680 0.059110 -0.236340 -0.174800 
-0.527150 16.772510 -6.126760 -7.081944 -9.179283 1.565504 -15.013302 13.013916 2.155078 7.263914 -0.641705 0.908485 -8.948379 10.721508 28.013341 0.384863 6.899653 2.338620 0.671720 0.312470 0.457210 18.696578 -8.895642 4.894335 3.407126 13.211569 -41.949869 14.293387 -13.515153 47.226175 -1.274747 -7.465642 1.918945 0.061030 0.066080 0.318080 -4.408364 -2.874650 -8.056224 14.522423 -12.963132 19.937972 -11.937178 -10.246680 8.259391 2.239743 -7.036863 -13.843004 -14.976195 11.342859 30.219645 1.815170 6.782120 -15.105680 -7.408800 -16.872008 9.632641 -38.281657 -1.045924 -8.278482 -56.271680 -43.996488 15.975829 -3.284294 3.562675 0.620390 -0.038720 0.157270 0.329930 2.880448 19.247317 7.406268 51.374183 16.361031 -6.633151 48.044475 44.524057 12.872125 2.169194 -1.873141 0.010800 0.031200 -0.272180 -0.163980 
-0.536510 16.728090 -6.095310 -6.251455 -12.030200 1.776526 -15.047787 13.011429 2.282716 5.899952 -0.840873 -0.689550 -9.674691 11.707915 31.420585 0.511594 7.320843 2.173758 0.727210 0.375860 0.500020 18.667457 -8.804980 4.962733 5.965828 13.783539 -41.746951 10.760647 -10.680717 45.082916 -1.098446 -6.430044 2.244939 0.076760 0.006790 0.302510 -4.312011 -3.017143 -8.156277 12.422472 -12.392549 21.344454 -11.519742 -9.681880 6.688770 2.031767 -7.776542 -13.975348 -16.768026 12.167772 30.344417 2.913040 7.025170 -17.034020 -8.226924 -17.291662 9.339588 -40.888819 -1.452188 -8.371625 -47.028373 -33.454971 7.813698 -3.216698 3.466043 0.667970 -0.106340 0.215800 0.346640 4.318738 20.465685 7.592647 55.368158 15.838543 -7.795736 39.587629 37.820355 7.496712 2.218827 -1.778060 0.030300 0.035180 -0.319610 -0.163700 
-0.537380 16.647020 -6.026910 -5.574315 -14.060986 2.073298 -15.108793 13.085153 2.441563 5.022111 -0.871616 -1.437013 -10.751446 12.643168 33.327486 0.611344 7.688529 2.030914 0.762430 0.417150 0.527300 18.600915 -8.704356 4.952263 7.889122 13.770186 -40.907493 8.044864 -8.389661 41.793629 -0.921532 -5.399526 2.575766 0.087960 -0.045560 0.294520 -4.114467 -3.331222 -8.252378 10.633920 -11.682301 22.205801 -10.632806 -9.115388 4.990093 2.157357 -8.416502 -13.882251 -18.604307 12.738500 30.777593 3.053840 7.382860 -18.809500 -10.813755 -17.396098 8.638467 -44.426504 -2.966703 -6.953353 -36.489853 -22.253527 2.090779 -3.198089 3.350762 0.717780 -0.158050 0.264900 0.352240 6.889801 21.275463 7.840345 57.481302 14.101477 -8.973603 31.861381 32.890871 4.172572 2.250475 -1.667568 0.038810 0.035300 -0.345080 -0.171500 
-0.542060 16.568230 -5.950040 -5.497690 -16.301770 1.779735 -15.120963 13.193186 2.597367 4.826387 -0.897150 -1.707765 -11.368159 13.652577 35.806067 0.754217 8.135247 1.856571 0.799320 0.459960 0.565730 18.552665 -8.776672 4.836264 10.284002 13.108945 -38.081717 5.648143 -6.394168 37.048357 -0.760265 -4.261154 2.952737 0.078370 -0.122220 0.296350 -3.996949 -3.447139 -8.314307 9.707571 -11.103714 24.065219 -10.447301 -8.488978 2.863746 2.480525 -8.918536 -13.812887 -20.534717 13.242998 32.220928 3.521460 7.612440 -21.508850 -14.232867 -17.098853 7.903771 -47.042037 -3.658511 -4.835017 -26.883774 -11.640469 -0.768343 -3.174267 3.243579 0.780510 -0.232530 0.339440 0.345850 9.832609 21.497258 8.088669 59.080932 11.533594 -10.498481 25.951801 29.633380 2.283460 2.289329 -1.552901 0.071050 0.022530 -0.371380 -0.177250 
